<svg xmlns="http://www.w3.org/2000/svg" width="44" height="44" viewBox="0 0 44 44">
  <defs>
    <linearGradient id="btnPurple" x1="0" y1="0" x2="0" y2="1">
      <stop offset="0%" stop-color="#6B44A0"/>
      <stop offset="100%" stop-color="#533483"/>
    </linearGradient>
  </defs>
  <rect x="0" y="0" width="44" height="44" rx="8" ry="8" fill="url(#btnPurple)"/>
  <rect x="1" y="1" width="42" height="20" rx="7" ry="7" fill="#fff" opacity="0.06"/>
  <!-- Gear icon -->
  <g transform="translate(22,22)" fill="none" stroke="#E0E0E0" stroke-width="1.5">
    <circle r="4"/>
    <path d="M0,-10 L-1.5,-7 L1.5,-7Z" fill="#E0E0E0" stroke="none"/>
    <path d="M0,10 L1.5,7 L-1.5,7Z" fill="#E0E0E0" stroke="none"/>
    <path d="M10,0 L7,-1.5 L7,1.5Z" fill="#E0E0E0" stroke="none"/>
    <path d="M-10,0 L-7,1.5 L-7,-1.5Z" fill="#E0E0E0" stroke="none"/>
    <path d="M7.07,-7.07 L4.24,-5.66 L5.66,-4.24Z" fill="#E0E0E0" stroke="none"/>
    <path d="M-7.07,7.07 L-4.24,5.66 L-5.66,4.24Z" fill="#E0E0E0" stroke="none"/>
    <path d="M7.07,7.07 L5.66,4.24 L4.24,5.66Z" fill="#E0E0E0" stroke="none"/>
    <path d="M-7.07,-7.07 L-5.66,-4.24 L-4.24,-5.66Z" fill="#E0E0E0" stroke="none"/>
  </g>
</svg>