<svg xmlns="http://www.w3.org/2000/svg" viewBox="0 0 40 40" width="40" height="40">
  <circle cx="20" cy="20" r="19" fill="#8B1A1A" stroke="#5C0A0A" stroke-width="2"/>
  <path d="M20,6 C20,6 30,16 28,24 C26,30 24,32 20,34 C16,32 14,30 12,24 C10,16 20,6 20,6Z" fill="#FF4500" opacity="0.9"/>
  <path d="M20,12 C20,12 27,19 25,25 C24,28 22,30 20,31 C18,30 16,28 15,25 C13,19 20,12 20,12Z" fill="#FF6B35"/>
  <path d="M20,18 C20,18 24,22 23,26 C22,28 21,29 20,29 C19,29 18,28 17,26 C16,22 20,18 20,18Z" fill="#FFD93D"/>
</svg>
