<svg xmlns="http://www.w3.org/2000/svg" viewBox="0 0 40 40" width="40" height="40">
  <circle cx="20" cy="20" r="19" fill="#1A3A5C" stroke="#0D2137" stroke-width="2"/>
  <path d="M20,7 C20,7 30,20 30,26 C30,32 25.5,35 20,35 C14.5,35 10,32 10,26 C10,20 20,7 20,7Z" fill="#4FC3F7"/>
  <path d="M20,7 C20,7 30,20 30,26 C30,32 25.5,35 20,35 C20,35 22,28 22,24 C22,18 20,7 20,7Z" fill="#1E90FF" opacity="0.6"/>
  <ellipse cx="16" cy="22" rx="3" ry="4" fill="#F5F0E8" opacity="0.5" transform="rotate(-20 16 22)"/>
</svg>
